<?xml version="1.0" standalone="no"?>
<!DOCTYPE svg PUBLIC "-//W3C//DTD SVG 20010904//EN"
 "http://www.w3.org/TR/2001/REC-SVG-20010904/DTD/svg10.dtd">
<svg version="1.0" xmlns="http://www.w3.org/2000/svg"
 width="150.000000pt" height="150.000000pt" viewBox="0 0 150.000000 150.000000"
 preserveAspectRatio="xMidYMid meet">

<g transform="translate(0.000000,150.000000) scale(0.100000,-0.100000)"
fill="#000000" stroke="none">
<path d="M0 1332 c0 -151 2 -171 16 -165 11 4 12 9 5 16 -11 11 -15 176 -5
213 l5 20 192 -22 c106 -13 192 -23 192 -24 0 0 -34 -335 -35 -338 -2 -11 -30
10 -55 41 -22 27 -37 37 -60 38 -21 1 -24 3 -10 6 11 3 24 9 30 14 12 12 -21
12 -45 -1 -14 -7 -19 -5 -23 10 -3 11 -10 20 -17 20 -6 0 -9 -4 -6 -9 7 -11
-22 -36 -31 -27 -3 3 -1 6 5 6 7 0 12 5 12 10 0 6 -6 10 -14 10 -8 0 -16 5
-18 12 -2 6 -11 12 -19 14 -7 1 -20 3 -28 5 -8 3 -14 -5 -16 -18 -2 -31 -15
-42 -15 -15 0 12 -4 22 -9 22 -14 0 -18 -52 -6 -72 8 -14 4 -23 -18 -43 l-27
-26 0 -329 c0 -213 4 -330 10 -330 6 0 10 66 10 179 l0 178 38 7 c20 3 50 6
65 6 16 0 26 4 23 9 -7 11 133 27 192 22 15 -1 16 -61 0 -61 -6 0 -8 -3 -5 -7
4 -3 2 -12 -4 -20 -6 -7 -8 -13 -4 -13 11 0 50 44 51 58 1 7 2 20 3 31 1 14
12 20 49 26 26 3 63 17 82 29 20 13 53 23 75 24 40 2 41 1 52 -41 9 -33 23
-53 60 -81 44 -34 52 -37 97 -33 69 6 94 39 114 150 4 21 11 37 16 37 5 -1 13
4 17 12 7 10 9 10 10 1 1 -7 3 -16 4 -20 2 -5 6 -18 10 -30 6 -18 11 -21 25
-13 28 15 85 4 127 -25 21 -14 42 -25 47 -25 6 0 24 -14 41 -30 21 -20 37 -28
48 -24 9 3 15 10 12 14 -6 9 72 21 91 13 21 -8 18 -53 -3 -53 -15 0 -16 -2 -3
-10 12 -7 8 -10 -15 -10 -30 -1 -30 -1 -6 -11 14 -5 31 -7 38 -4 12 4 13 -15
7 -113 -6 -109 -5 -120 15 -154 19 -31 21 -45 15 -97 -3 -34 -11 -61 -16 -61
-5 0 -7 4 -4 9 3 5 -3 11 -14 14 -24 6 -25 -2 -5 -29 33 -43 6 -104 -30 -67
-14 14 -18 14 -35 -2 -11 -10 -21 -16 -23 -14 -1 2 -10 18 -19 34 -9 17 -38
45 -65 63 -38 27 -55 33 -80 29 -51 -9 -41 15 23 57 31 21 59 46 61 56 3 11
12 20 22 22 12 3 10 5 -7 10 -17 5 -32 -1 -58 -24 -25 -22 -33 -25 -28 -12 4
11 16 27 28 36 l21 17 -22 -6 c-13 -3 -23 -1 -23 4 0 14 81 65 96 59 7 -3 18
3 26 11 11 14 11 16 -3 11 -9 -4 -22 -1 -28 5 -8 8 -11 8 -11 -2 0 -8 -7 -11
-20 -8 -11 3 -23 -1 -28 -7 -4 -7 -17 -18 -29 -25 -19 -10 -23 -20 -23 -61 0
-28 -4 -50 -10 -50 -11 0 -12 8 -12 57 l0 32 -56 -25 c-63 -28 -72 -34 -51
-34 9 0 24 7 35 15 23 17 44 19 44 4 0 -5 -4 -8 -8 -5 -13 8 -72 -32 -72 -48
0 -8 -8 -19 -17 -25 -15 -8 -15 -14 -5 -47 6 -21 10 -40 7 -42 -11 -12 -85
-20 -116 -13 -53 12 -139 2 -132 -15 6 -17 -2 -18 -29 -3 -12 7 -58 11 -103
10 -73 -2 -83 0 -102 21 -45 50 -52 92 -15 97 49 6 114 2 127 -9 19 -16 19 -1
0 24 -17 22 -20 66 -5 66 6 0 10 8 10 18 0 14 2 15 10 2 5 -8 10 -13 11 -10 0
3 2 13 4 23 2 10 -1 14 -7 11 -6 -4 -13 -2 -17 3 -7 11 -67 53 -75 53 -14 0 0
-50 14 -50 13 -1 12 -2 -2 -10 -9 -6 -14 -18 -11 -28 2 -11 -1 -19 -9 -20 -71
-8 -75 -12 -93 -77 -16 -55 -21 -62 -39 -57 -18 5 -19 3 -8 -11 11 -13 10 -19
-6 -35 -27 -27 -105 -40 -222 -40 -52 1 -86 3 -75 5 26 5 44 43 33 72 -6 18
-11 20 -27 11 -11 -5 -29 -10 -40 -10 -18 0 -21 6 -21 45 0 25 -4 45 -10 45
-6 0 -10 -67 -10 -180 0 -206 -8 -192 97 -165 51 13 58 13 66 0 7 -13 72 -15
492 -15 l485 0 0 30 c0 25 4 30 25 30 21 0 25 -5 25 -30 0 -28 2 -30 40 -30
33 0 40 3 40 20 0 15 7 20 26 20 22 0 25 -4 21 -20 -5 -20 -1 -21 89 -18 91 2
94 3 94 25 0 15 -6 23 -16 23 -14 0 -16 8 -10 48 3 26 11 49 16 50 16 6 12 52
-5 52 -8 0 -15 5 -15 10 0 6 7 10 15 10 18 0 20 37 3 42 -7 3 -8 9 -3 18 4 7
10 167 13 356 l4 343 -26 7 c-15 3 -38 4 -52 1 -20 -4 -28 0 -32 15 -3 14 -7
16 -13 7 -4 -7 -27 -15 -51 -18 -35 -5 -46 -3 -61 14 -16 17 -18 17 -13 3 7
-24 -10 -23 -36 2 -28 26 -34 25 -70 -10 -34 -35 -38 -36 -39 -12 0 12 -3 10
-10 -8 -7 -17 -12 -21 -18 -12 -4 6 -29 17 -57 22 -27 6 -56 12 -64 14 -8 3
-27 5 -42 5 -26 1 -28 4 -28 46 0 62 -16 90 -66 117 -43 22 -44 24 -44 73 l0
50 128 -2 c70 0 209 -2 310 -2 114 -1 182 -5 182 -11 0 -6 -108 -10 -305 -10
-197 0 -305 -4 -305 -10 0 -6 53 -10 138 -10 77 0 214 -3 305 -7 l167 -6 0
-84 0 -84 48 3 47 3 3 213 2 212 -467 -1 c-258 -1 -463 -2 -458 -4 6 -2 31 -6
58 -10 l47 -6 0 -40 c0 -39 0 -39 -37 -38 -21 0 -76 6 -123 12 l-85 12 1 38
c2 46 -21 51 -24 5 -2 -18 -4 -34 -6 -36 -2 -2 -89 7 -192 19 -136 16 -193 27
-201 38 -11 12 -13 -18 -13 -157z m1410 93 l0 -45 -315 0 -315 0 0 45 0 45
315 0 315 0 0 -45z m-884 -64 c57 -7 78 -14 104 -37 18 -16 36 -28 41 -26 5 1
9 -23 9 -54 0 -51 -4 -60 -40 -101 -27 -31 -40 -55 -40 -74 0 -16 -3 -29 -7
-30 -5 0 -25 -3 -47 -5 -31 -4 -37 -2 -33 10 4 9 2 18 -3 21 -6 4 -10 -3 -10
-15 0 -19 -4 -21 -29 -15 -17 3 -39 1 -50 -5 -25 -13 -24 -23 -11 130 5 63 10
136 11 163 3 53 -4 50 105 38z m-412 -225 c-3 -8 -12 -12 -20 -9 -21 8 -17 23
6 23 13 0 18 -5 14 -14z m721 1 c14 -11 15 -16 5 -22 -9 -5 -11 -4 -6 3 4 7 2
12 -3 12 -13 0 -14 -17 -2 -24 5 -3 11 -19 13 -36 4 -25 0 -32 -28 -45 -18 -8
-37 -15 -43 -15 -6 0 -11 -17 -10 -37 0 -35 1 -36 11 -15 12 24 23 28 33 12 9
-14 31 -12 48 5 12 11 17 12 24 2 15 -19 9 -58 -16 -112 -13 -27 -23 -55 -22
-61 2 -19 -27 -36 -50 -29 l-22 7 25 16 c28 17 51 49 44 61 -3 5 -20 12 -38
16 -29 6 -31 8 -13 15 11 5 14 9 7 9 -7 1 -11 5 -7 10 3 5 0 13 -6 17 -7 4 -9
3 -6 -3 9 -14 -19 -37 -33 -28 -6 4 -8 16 -4 27 3 11 0 33 -6 49 -10 24 -18
29 -46 29 -28 0 -34 4 -35 23 -4 64 -4 85 -1 82 2 -2 12 4 23 13 37 32 131 43
164 19z m-470 -127 c3 -6 -4 -10 -17 -10 -18 0 -20 2 -8 10 19 12 18 12 25 0z
m125 0 c0 -5 -5 -10 -11 -10 -5 0 -7 5 -4 10 3 6 8 10 11 10 2 0 4 -4 4 -10z
m429 -67 l-1 -48 -13 30 c-7 17 -9 32 -4 33 5 2 9 10 9 18 0 8 2 14 5 14 3 0
5 -21 4 -47z m-197 -23 c-2 -19 1 -36 9 -41 10 -6 6 -11 -14 -18 -28 -11 -37
-36 -15 -43 7 -3 9 -12 4 -23 -6 -18 -9 -16 -23 13 -8 17 -19 32 -23 32 -10 0
-30 57 -30 86 0 20 4 22 35 17 24 -4 35 -2 35 7 0 6 6 10 13 7 7 -2 11 -17 9
-37z m-103 -8 c0 -24 -1 -25 -9 -7 -12 28 -12 47 0 40 6 -3 10 -18 9 -33z
m378 -48 c-3 -3 -12 -4 -19 -1 -8 3 -5 6 6 6 11 1 17 -2 13 -5z m-224 -11 c-7
-2 -19 -2 -25 0 -7 3 -2 5 12 5 14 0 19 -2 13 -5z m7 -33 c-20 -13 -40 -13
-40 0 0 6 12 10 28 10 21 0 24 -2 12 -10z m595 -20 c0 -11 -15 -16 -57 -18
-51 -3 -58 -1 -58 16 0 16 8 18 58 17 43 0 57 -4 57 -15z m-185 1 c0 -6 -4
-13 -10 -16 -5 -3 -10 1 -10 9 0 9 5 16 10 16 6 0 10 -4 10 -9z m-430 -22 c0
-5 -11 -9 -25 -9 -24 0 -32 10 -19 22 8 8 44 -3 44 -13z m339 -447 c-25 -8
-48 -33 -42 -48 3 -8 0 -14 -6 -14 -17 0 -13 25 9 53 14 17 26 24 37 20 14 -5
14 -7 2 -11z m-309 -122 c0 -5 -13 -10 -30 -10 -16 0 -30 5 -30 10 0 6 14 10
30 10 17 0 30 -4 30 -10z m234 -119 c-6 -6 -24 19 -24 34 1 6 7 1 15 -9 8 -11
12 -22 9 -25z"/>
<path d="M536 748 c4 -13 13 -39 20 -58 l14 -35 -6 35 c-8 43 -21 80 -29 80
-4 0 -3 -10 1 -22z"/>
<path d="M253 753 c9 -2 23 -2 30 0 6 3 -1 5 -18 5 -16 0 -22 -2 -12 -5z"/>
<path d="M1116 742 c6 -4 14 -14 17 -22 4 -10 6 -8 6 8 1 15 -5 22 -16 22 -11
0 -14 -3 -7 -8z"/>
<path d="M1278 673 c7 -3 16 -2 19 1 4 3 -2 6 -13 5 -11 0 -14 -3 -6 -6z"/>
<path d="M559 608 c-8 -12 -22 -28 -31 -37 -26 -23 -23 -29 30 -53 26 -12 55
-30 66 -39 19 -18 56 -15 38 3 -6 6 -7 22 -2 39 5 16 7 38 5 48 -2 13 4 21 18
25 12 3 18 8 15 11 -3 3 -32 -1 -64 -9 -58 -15 -80 -13 -68 6 4 6 10 5 15 -3
7 -11 9 -10 9 3 0 26 -15 29 -31 6z m39 -94 c-4 -3 -15 3 -26 14 -26 26 -16
37 11 12 11 -11 18 -22 15 -26z"/>
<path d="M870 620 c0 -6 7 -10 15 -10 8 0 15 2 15 4 0 2 -7 6 -15 10 -8 3 -15
1 -15 -4z"/>
<path d="M1190 610 c0 -5 -9 -19 -20 -30 -16 -16 -17 -20 -5 -20 20 0 19 -20
-2 -37 -10 -8 -2 -5 18 6 20 11 39 19 42 16 4 -3 5 -2 2 2 -8 11 16 33 36 33
11 0 19 7 19 15 0 18 -5 18 -30 5 -13 -7 -21 -6 -30 5 -14 17 -30 20 -30 5z"/>
<path d="M461 584 c0 -11 3 -14 6 -6 3 7 2 16 -1 19 -3 4 -6 -2 -5 -13z"/>
<path d="M715 560 c3 -5 11 -10 16 -10 6 0 7 5 4 10 -3 6 -11 10 -16 10 -6 0
-7 -4 -4 -10z"/>
<path d="M440 511 c0 -6 4 -13 10 -16 6 -3 7 1 4 9 -7 18 -14 21 -14 7z"/>
<path d="M96 465 c-9 -26 -7 -32 5 -12 6 10 9 21 6 23 -2 3 -7 -2 -11 -11z"/>
<path d="M1031 466 c-8 -10 -9 -16 -1 -21 13 -8 30 3 30 21 0 18 -14 18 -29 0z"/>
<path d="M412 446 c18 -13 15 -27 -5 -22 -7 2 -9 1 -6 -1 3 -2 4 -16 2 -31
l-4 -27 20 25 c12 14 26 31 32 38 15 18 2 32 -29 32 -24 -1 -25 -2 -10 -14z"/>
<path d="M188 433 c7 -3 16 -2 19 1 4 3 -2 6 -13 5 -11 0 -14 -3 -6 -6z"/>
<path d="M730 420 c0 -5 5 -10 10 -10 6 0 10 5 10 10 0 6 -4 10 -10 10 -5 0
-10 -4 -10 -10z"/>
<path d="M1340 383 c14 -3 29 -10 33 -17 6 -7 7 -6 4 4 -2 8 -16 16 -33 17
-25 1 -26 0 -4 -4z"/>
<path d="M790 337 c0 -19 4 -25 15 -21 8 4 15 10 15 14 0 4 -7 13 -15 20 -13
11 -15 8 -15 -13z"/>
<path d="M640 343 c0 -13 53 -63 67 -63 16 0 17 21 1 42 -14 16 -68 34 -68 21z"/>
<path d="M320 241 c0 -12 5 -21 10 -21 6 0 10 6 10 14 0 8 -4 18 -10 21 -5 3
-10 -3 -10 -14z"/>
<path d="M1356 163 c-6 -14 -5 -15 5 -6 7 7 10 15 7 18 -3 3 -9 -2 -12 -12z"/>
</g>
</svg>
